HIERARCHY
ROOT root
{
	OFFSET 0.000000 0.000000 0.000000
	CHANNELS 6 Xposition Yposition Zposition Zrotation Yrotation Xrotation
	JOINT lhip
	{
		OFFSET 0.058581 -0.082280 -0.017664
		CHANNELS 3 Zrotation Yrotation Xrotation
		JOINT lknee
		{
			OFFSET 0.043451 -0.386469 0.008037
			CHANNELS 3 Zrotation Yrotation Xrotation
			JOINT lankle
			{
				OFFSET -0.014790 -0.426874 -0.037428
				CHANNELS 3 Zrotation Yrotation Xrotation
				JOINT ltoe
				{
					OFFSET 0.041054 -0.060286 0.122042
					CHANNELS 3 Zrotation Yrotation Xrotation
					End Site
					{
						OFFSET 0.000000 0.000000 0.000000
					}
				}
			}
		}
	}
	JOINT rhip
	{
		OFFSET -0.060310 -0.090513 -0.013543
		CHANNELS 3 Zrotation Yrotation Xrotation
		JOINT rknee
		{
			OFFSET -0.043257 -0.383688 -0.004843
			CHANNELS 3 Zrotation Yrotation Xrotation
			JOINT rankle
			{
				OFFSET 0.019056 -0.420046 -0.034562
				CHANNELS 3 Zrotation Yrotation Xrotation
				JOINT rtoe
				{
					OFFSET -0.034840 -0.062106 0.130323
					CHANNELS 3 Zrotation Yrotation Xrotation
					End Site
					{
						OFFSET 0.000000 0.000000 0.000000
					}
				}
			}
		}
	}
	JOINT lowerback
	{
		OFFSET 0.004439 0.124404 -0.038385
		CHANNELS 3 Zrotation Yrotation Xrotation
		JOINT upperback
		{
			OFFSET 0.004488 0.137956 0.026820
			CHANNELS 3 Zrotation Yrotation Xrotation
			JOINT chest
			{
				OFFSET -0.002265 0.056032 0.002855
				CHANNELS 3 Zrotation Yrotation Xrotation
				JOINT lowerneck
				{
					OFFSET -0.013390 0.211636 -0.033468
					CHANNELS 3 Zrotation Yrotation Xrotation
					JOINT upperneck
					{
						OFFSET 0.010113 0.088937 0.050410
						CHANNELS 3 Zrotation Yrotation Xrotation
						End Site
						{
							OFFSET 0.000000 0.000000 0.000000
						}
					}
				}
				JOINT lclavicle
				{
					OFFSET 0.071702 0.114000 -0.018898
					CHANNELS 3 Zrotation Yrotation Xrotation
					JOINT lshoulder
					{
						OFFSET 0.122921 0.045205 -0.019046
						CHANNELS 3 Zrotation Yrotation Xrotation
						JOINT lelbow
						{
							OFFSET 0.255332 -0.015649 -0.022946
							CHANNELS 3 Zrotation Yrotation Xrotation
							JOINT lwrist
							{
								OFFSET 0.265709 0.012698 -0.007375
								CHANNELS 3 Zrotation Yrotation Xrotation
								End Site
								{
									OFFSET 0.000000 0.000000 0.000000
								}
							}
						}
					}
				}
				JOINT rclavicle
				{
					OFFSET -0.082954 0.112472 -0.023707
					CHANNELS 3 Zrotation Yrotation Xrotation
					JOINT rshoulder
					{
						OFFSET -0.113228 0.046853 -0.008472
						CHANNELS 3 Zrotation Yrotation Xrotation
						JOINT relbow
						{
							OFFSET -0.260127 -0.014369 -0.031269
							CHANNELS 3 Zrotation Yrotation Xrotation
							JOINT rwrist
							{
								OFFSET -0.269108 0.006794 -0.006027
								CHANNELS 3 Zrotation Yrotation Xrotation
								End Site
								{
									OFFSET 0.000000 0.000000 0.000000
								}
							}
						}
					}
				}
			}
		}
	}
}
MOTION
Frames: 16
Frame Time: 0.033333
-0.145097 0.327198 0.979825 -3.657878 1.377991 84.103196 7.236583 6.846198 11.165024 -4.801936 5.444917 -3.237519 -0.017727 14.956110 -13.669683 0.000000 -0.000000 0.000000 -2.879141 -1.563725 -1.919790 -0.083761 -5.118625 19.176925 4.434212 -8.844433 -14.101647 0.000000 -0.000000 0.000000 1.169631 -2.716275 3.825453 1.552298 -2.072321 4.235291 -0.249954 -3.001318 6.056237 4.739755 5.004528 -1.742280 -2.223158 4.937577 11.065110 -18.714243 11.885473 -0.914855 -66.115649 -6.032724 11.767805 5.208519 -31.461251 14.189990 -2.368835 -7.127610 -16.432132 17.767878 -8.075935 -4.868516 60.171863 4.903217 17.851218 -5.024294 28.638844 9.538692 9.205923 6.068978 -10.483570 
-0.145277 0.327134 0.979846 -3.732913 1.394261 84.112987 7.261775 6.828022 11.214999 -4.815745 5.484363 -3.342225 0.083116 14.991049 -13.601515 0.000000 -0.000000 0.000000 -2.861061 -1.461695 -1.865752 0.051500 -4.978186 19.041153 4.565659 -9.071437 -14.110087 0.000000 -0.000000 0.000000 1.161360 -2.770445 3.837769 1.503395 -2.069272 4.193157 -0.259363 -2.957489 6.072757 4.791688 4.969327 -1.861432 -2.077844 4.922960 11.355416 -18.511131 11.798821 -0.752928 -66.334618 -5.884755 11.642493 5.417411 -31.031273 14.174793 -2.570964 -7.218140 -16.397939 17.826997 -8.018311 -4.656565 60.149138 4.970322 17.700511 -5.052000 28.566719 9.310712 9.280008 6.096934 -10.244094 
-0.145487 0.327094 0.979842 -3.817315 1.425512 84.133368 7.306292 6.864135 11.274437 -4.823829 5.512161 -3.480067 0.081873 15.008357 -13.543970 0.000000 -0.000000 0.000000 -2.818240 -1.411475 -1.863763 0.086861 -4.968924 18.968219 4.542615 -9.062907 -14.084680 0.000000 -0.000000 0.000000 1.170385 -2.774410 3.836744 1.499982 -2.057180 4.194162 -0.258380 -2.942063 6.048293 4.789097 4.973238 -1.887929 -2.019360 4.864735 11.452416 -18.494677 11.796905 -0.708965 -66.377112 -5.811052 11.532303 5.433928 -30.489743 14.128460 -2.650991 -7.147580 -16.229907 17.832002 -8.017044 -4.591628 60.157026 4.945586 17.629504 -5.052542 28.463881 9.338043 9.285406 6.100646 -10.235998 
-0.145728 0.326987 0.979813 -3.920466 1.460553 84.143093 7.362605 6.939041 11.384811 -4.830620 5.524742 -3.671076 0.071606 15.014045 -13.465558 0.000000 -0.000000 0.000000 -2.773514 -1.389836 -1.849751 0.127374 -4.924373 18.891727 4.528325 -9.036828 -14.047053 0.000000 -0.000000 0.000000 1.174033 -2.772046 3.815551 1.504993 -2.044760 4.219196 -0.257319 -2.921263 6.076059 4.783368 4.934044 -1.873282 -2.025802 4.799598 11.471597 -18.494770 11.836934 -0.728364 -66.409222 -5.768944 11.403493 5.405924 -29.733825 14.048028 -2.709093 -7.043179 -16.016619 17.833258 -8.053701 -4.586623 60.155471 4.919050 17.583750 -5.023693 28.329494 9.353020 9.271105 6.083553 -10.182960 
-0.145875 0.326964 0.979805 -3.968871 1.476050 84.157469 7.389427 6.972796 11.426046 -4.835595 5.542240 -3.765214 0.058990 15.007481 -13.423207 0.000000 -0.000000 0.000000 -2.752581 -1.378407 -1.860273 0.144846 -4.917706 18.860996 4.524141 -9.020108 -14.024565 0.000000 -0.000000 0.000000 1.172182 -2.773700 3.807608 1.501503 -2.037598 4.226401 -0.260923 -2.920355 6.082431 4.785511 4.923667 -1.867983 -2.029064 4.768228 11.497551 -18.502550 11.861359 -0.725558 -66.404581 -5.734419 11.325145 5.417065 -29.322899 13.983943 -2.788054 -7.047005 -15.876482 17.840045 -8.082590 -4.587946 60.153062 4.920338 17.561557 -4.990607 28.212377 9.374150 9.290274 6.088952 -10.140520 
-0.146053 0.327019 0.979784 -4.005122 1.498012 84.186966 7.422738 7.006554 11.440913 -4.838773 5.560255 -3.854306 0.047562 14.991411 -13.378325 0.000000 -0.000000 0.000000 -2.721275 -1.362284 -1.895013 0.165895 -4.908536 18.831773 4.507932 -9.018972 -14.004430 0.000000 -0.000000 0.000000 1.164351 -2.778856 3.792461 1.501629 -2.042539 4.241914 -0.262891 -2.932565 6.087197 4.786041 4.897644 -1.858257 -2.039169 4.730087 11.516217 -18.517555 11.885057 -0.714852 -66.402768 -5.701909 11.230654 5.448698 -28.821996 13.900708 -2.880863 -7.031574 -15.712922 17.850599 -8.106662 -4.584138 60.146186 4.921704 17.536900 -4.965336 28.085618 9.388683 9.306812 6.107393 -10.130763 
-0.146206 0.327084 0.979774 -4.006929 1.513474 84.205148 7.447666 7.032031 11.461904 -4.841117 5.558980 -3.940218 0.033261 14.975928 -13.336906 0.000000 -0.000000 0.000000 -2.703054 -1.361339 -1.889679 0.189839 -4.910064 18.771808 4.495916 -9.022937 -13.973812 0.000000 -0.000000 0.000000 1.154377 -2.786950 3.804572 1.497873 -2.061141 4.235357 -0.271614 -2.950439 6.098744 4.788259 4.855289 -1.843674 -2.043939 4.665831 11.542636 -18.532628 11.889859 -0.713116 -66.381989 -5.673425 11.156558 5.451147 -28.372493 13.824315 -2.956652 -7.022948 -15.566342 17.864644 -8.140517 -4.592653 60.149356 4.898201 17.513468 -4.951891 28.002942 9.368881 9.297040 6.112655 -10.124108 
-0.146332 0.327188 0.979795 -3.997976 1.526553 84.231518 7.472451 7.064768 11.468266 -4.850226 5.549770 -4.020316 0.020015 14.954667 -13.285235 0.000000 -0.000000 0.000000 -2.687896 -1.365968 -1.887587 0.209073 -4.916494 18.702587 4.490772 -9.023723 -13.932398 0.000000 -0.000000 0.000000 1.148727 -2.800160 3.814468 1.489695 -2.075338 4.220783 -0.286229 -2.962243 6.105078 4.791268 4.796128 -1.838506 -2.039552 4.576257 11.596930 -18.558961 11.892025 -0.711142 -66.352297 -5.674039 11.101829 5.452895 -27.999814 13.751537 -2.997706 -7.033904 -15.450679 17.877486 -8.167032 -4.602049 60.148560 4.885269 17.503289 -4.918587 27.903500 9.376640 9.264173 6.127054 -10.102702 
-0.146411 0.327317 0.979838 -3.996403 1.544496 84.264403 7.495785 7.095778 11.476282 -4.858727 5.550578 -4.117196 0.008961 14.929312 -13.231155 0.000000 -0.000000 0.000000 -2.668586 -1.369951 -1.897687 0.223324 -4.922396 18.636923 4.489976 -9.011626 -13.884881 0.000000 -0.000000 0.000000 1.157748 -2.816524 3.804943 1.480723 -2.080061 4.223429 -0.301514 -2.966448 6.106142 4.781875 4.719522 -1.849182 -2.041026 4.484402 11.646494 -18.579874 11.912209 -0.714138 -66.348591 -5.688192 11.056829 5.467108 -27.758001 13.699038 -3.043259 -7.036971 -15.355713 17.872650 -8.188982 -4.612092 60.160141 4.883935 17.484787 -4.900206 27.811217 9.400549 9.286772 6.124365 -10.044099 
-0.146473 0.327527 0.979856 -4.013581 1.558691 84.321011 7.510289 7.117547 11.455462 -4.868961 5.577132 -4.217955 -0.005757 14.906271 -13.172542 0.000000 -0.000000 0.000000 -2.653930 -1.382435 -1.964459 0.233608 -4.923351 18.612910 4.492872 -8.994945 -13.861543 0.000000 -0.000000 0.000000 1.162705 -2.830302 3.787330 1.474274 -2.072066 4.216343 -0.320590 -2.964269 6.118670 4.765712 4.631674 -1.893541 -2.060999 4.357126 11.667214 -18.602068 11.965673 -0.716441 -66.347075 -5.687209 11.047809 5.471500 -27.760787 13.692800 -3.103854 -7.039153 -15.342176 17.876092 -8.228723 -4.632367 60.172556 4.878759 17.468273 -4.925073 27.787489 9.373213 9.349567 6.098438 -10.038634 
-0.146516 0.327778 0.979857 -4.032528 1.561573 84.359742 7.512285 7.119729 11.430580 -4.883172 5.598509 -4.275794 -0.006722 14.905875 -13.147417 0.000000 -0.000000 0.000000 -2.645611 -1.373449 -2.035280 0.232830 -4.925922 18.627401 4.499833 -8.986613 -13.851801 0.000000 -0.000000 0.000000 1.151100 -2.836030 3.809260 1.471516 -2.059440 4.191025 -0.328557 -2.961617 6.116091 4.760484 4.575028 -1.950892 -2.072133 4.245837 11.697463 -18.616254 11.995519 -0.723063 -66.342139 -5.690039 11.071477 5.457171 -27.905324 13.707872 -3.136198 -7.047665 -15.355208 17.893112 -8.245941 -4.647272 60.161651 4.881753 17.457289 -4.963048 27.819496 9.305967 9.442932 6.056729 -10.058405 
-0.146553 0.328062 0.979849 -4.041967 1.567846 84.390242 7.518800 7.110808 11.395578 -4.894218 5.628046 -4.303799 -0.003727 14.893879 -13.128437 0.000000 -0.000000 0.000000 -2.629754 -1.348395 -2.097206 0.225742 -4.943012 18.641992 4.501758 -8.985108 -13.843886 0.000000 -0.000000 0.000000 1.144385 -2.844467 3.845535 1.465808 -2.049322 4.152490 -0.341129 -2.966667 6.117047 4.769240 4.517687 -1.996849 -2.079555 4.140982 11.740963 -18.638296 12.017406 -0.723557 -66.318432 -5.701572 11.112700 5.446919 -28.148688 13.733894 -3.149335 -7.100646 -15.376588 17.911785 -8.247257 -4.655848 60.147274 4.903390 17.475005 -4.970150 27.836271 9.312091 9.449284 6.066081 -10.002998 
-0.146555 0.328331 0.979861 -4.034967 1.573335 84.401991 7.519799 7.096379 11.363712 -4.895780 5.655175 -4.307514 -0.005667 14.883682 -13.115357 0.000000 -0.000000 0.000000 -2.619925 -1.332893 -2.124698 0.218257 -4.970069 18.637586 4.502222 -8.981247 -13.830519 0.000000 -0.000000 0.000000 1.138375 -2.855750 3.869420 1.458913 -2.049336 4.147531 -0.353308 -2.973841 6.124758 4.772459 4.448612 -2.040236 -2.086579 4.033277 11.793559 -18.657598 12.009884 -0.727281 -66.317305 -5.758438 11.163831 5.461908 -28.404884 13.723789 -3.137802 -7.151973 -15.417744 17.913108 -8.227864 -4.668511 60.155326 4.933605 17.499448 -4.977900 27.867404 9.285269 9.415346 6.100389 -10.014420 
-0.146531 0.328562 0.979896 -4.025203 1.577926 84.403700 7.516000 7.080524 11.347703 -4.891275 5.668265 -4.315363 0.002212 14.880023 -13.096650 0.000000 -0.000000 0.000000 -2.614370 -1.328897 -2.142509 0.211839 -4.986112 18.640311 4.506588 -8.978336 -13.811903 0.000000 -0.000000 0.000000 1.131671 -2.870461 3.874542 1.454137 -2.052864 4.166755 -0.362682 -2.972818 6.130921 4.755783 4.363231 -2.049274 -2.079267 3.934553 11.832287 -18.659303 11.979681 -0.735227 -66.347583 -5.832383 11.225704 5.488555 -28.662101 13.705437 -3.062979 -7.132183 -15.484266 17.898588 -8.198360 -4.672449 60.172893 4.953963 17.517990 -4.990510 27.951157 9.249010 9.347507 6.123850 -10.040284 
-0.146507 0.328764 0.979916 -4.031527 1.580305 84.401659 7.513190 7.075254 11.346601 -4.890481 5.688647 -4.330835 0.008425 14.871504 -13.078842 0.000000 -0.000000 0.000000 -2.606017 -1.323856 -2.168445 0.197048 -4.992723 18.664675 4.510685 -8.976115 -13.803112 0.000000 -0.000000 0.000000 1.121134 -2.884873 3.868117 1.451967 -2.051021 4.203651 -0.371055 -2.959533 6.130651 4.729890 4.277397 -2.041960 -2.071102 3.831150 11.854048 -18.666480 11.952524 -0.749882 -66.362815 -5.904350 11.296418 5.505622 -28.975481 13.698789 -2.990320 -7.121267 -15.584474 17.898155 -8.168162 -4.674256 60.175862 4.964441 17.539042 -5.002236 28.073809 9.223846 9.298004 6.141996 -10.065190 
-0.146491 0.328920 0.979907 -4.050633 1.579679 84.390786 7.515061 7.078980 11.353516 -4.897774 5.709305 -4.333554 0.009073 14.864562 -13.084068 0.000000 -0.000000 0.000000 -2.608907 -1.322547 -2.179350 0.189659 -5.009850 18.684406 4.517659 -8.944946 -13.802896 0.000000 -0.000000 0.000000 1.117654 -2.895324 3.893112 1.442970 -2.043888 4.198178 -0.389473 -2.955524 6.129287 4.719580 4.218136 -2.040593 -2.071093 3.725496 11.906095 -18.677359 11.945007 -0.763371 -66.350723 -5.952984 11.357674 5.520298 -29.341026 13.711245 -2.978056 -7.157048 -15.662237 17.909752 -8.164720 -4.686335 60.187450 4.966570 17.559154 -5.020650 28.210439 9.200125 9.322891 6.130160 -10.107301 
